<svg width="495" height="290" viewBox="0 0 495 290" fill="none" xmlns="http://www.w3.org/2000/svg">
<style>
  .title { font: 600 18px 'Segoe UI', Ubuntu, Sans-Serif; fill: #70a5fd; }
  .label { font: 400 13px 'Segoe UI', Ubuntu, Sans-Serif; fill: #adbac7; }
  .value { font: 700 13px 'Segoe UI', Ubuntu, Sans-Serif; fill: #e3b341; }
  .header { font: 600 12px 'Segoe UI', Ubuntu, Sans-Serif; fill: #8b949e; text-transform: uppercase; letter-spacing: 0.5px; }
  .total-label { font: 700 15px 'Segoe UI', Ubuntu, Sans-Serif; fill: #f47067; }
  .total-value { font: 800 18px 'Segoe UI', Ubuntu, Sans-Serif; fill: #57ab5a; }
  .icon { font: 400 14px 'Segoe UI Emoji', 'Apple Color Emoji', Sans-Serif; }
</style>

<rect x="0.5" y="0.5" width="494" height="289" rx="6" fill="#0d1117" stroke="#30363d" stroke-width="1"/>

<!-- Title -->
<text x="25" y="32" class="title">🏆 Competitive Programming Stats</text>
<text x="25" y="48" class="header">Auto-updated · Mar 27, 2026 · 22:46 UTC</text>

<!-- Column Headers -->
<text x="28" y="78" class="header">Platform</text>
<text x="158" y="78" class="header">Handle(s)</text>
<text x="310" y="78" class="header">Max Rating</text>
<text x="430" y="78" class="header">Solved</text>
<line x1="25" y1="86" x2="470" y2="86" stroke="#21262d" stroke-width="1"/>

<!-- LeetCode -->
<text x="28" y="112" class="icon">🟡</text>
<text x="48" y="112" class="label">LeetCode</text>
<text x="158" y="112" class="label">wtffff__, Hackker_69</text>
<text x="310" y="112" class="label">1919 (Knight)</text>
<text x="430" y="112" class="value">417</text>

<!-- Codeforces -->
<text x="28" y="140" class="icon">🔵</text>
<text x="48" y="140" class="label">Codeforces</text>
<text x="158" y="140" class="label">Hackker_69, krishnnna</text>
<text x="310" y="140" class="label">1623 (Expert)</text>
<text x="430" y="140" class="value">358</text>

<!-- CodeChef -->
<text x="28" y="168" class="icon">🟠</text>
<text x="48" y="168" class="label">CodeChef</text>
<text x="158" y="168" class="label">hackker_69</text>
<text x="310" y="168" class="label">1536 (2★)</text>
<text x="430" y="168" class="value">45</text>

<!-- AtCoder -->
<text x="28" y="196" class="icon">🔴</text>
<text x="48" y="196" class="label">AtCoder</text>
<text x="158" y="196" class="label">krishnnna</text>
<text x="310" y="196" class="label">747 (Brown)</text>
<text x="430" y="196" class="value">96</text>

<!-- CSES & Others -->
<text x="28" y="224" class="icon">🌐</text>
<text x="48" y="224" class="label">CSES &amp; Others</text>
<text x="158" y="224" class="label">—</text>
<text x="310" y="224" class="label">—</text>
<text x="430" y="224" class="value">102</text>

<line x1="25" y1="240" x2="470" y2="240" stroke="#21262d" stroke-width="1"/>

<!-- Grand Total -->
<text x="28" y="270" class="total-label">⚡ Grand Total</text>
<text x="420" y="270" class="total-value">1018</text>

</svg>